<?xml version="1.0" encoding="UTF-8" standalone="no"?>
<!DOCTYPE svg PUBLIC "-//W3C//DTD SVG 1.1//EN"
 "http://www.w3.org/Graphics/SVG/1.1/DTD/svg11.dtd">
<!-- Generated by graphviz version 11.0.0 (20240428.1522)
 -->
<!-- Pages: 1 -->
<svg width="553pt" height="125pt"
 viewBox="0.00 0.00 553.25 125.00" xmlns="http://www.w3.org/2000/svg" xmlns:xlink="http://www.w3.org/1999/xlink">
<g id="graph0" class="graph" transform="scale(1 1) rotate(0) translate(4 121)">
<polygon fill="white" stroke="none" points="-4,4 -4,-121 549.25,-121 549.25,4 -4,4"/>
<!-- 1731087430672 -->
<g id="node1" class="node">
<title>1731087430672</title>
<polygon fill="none" stroke="black" points="98.5,-117 0,-117 0,-81 98.5,-81 98.5,-117"/>
<text text-anchor="middle" x="49.25" y="-93.58" font-family="Times New Roman,serif" font-size="14.00">{data &#45;3.0000}</text>
</g>
<!-- 1731087432144* -->
<g id="node3" class="node">
<title>1731087432144*</title>
<ellipse fill="none" stroke="black" cx="161.5" cy="-72" rx="27" ry="18"/>
<text text-anchor="middle" x="161.5" y="-66.58" font-family="Times New Roman,serif" font-size="14.00">*</text>
</g>
<!-- 1731087430672&#45;&gt;1731087432144* -->
<g id="edge3" class="edge">
<title>1731087430672&#45;&gt;1731087432144*</title>
<path fill="none" stroke="black" d="M98.93,-87.08C107.55,-84.97 116.39,-82.8 124.59,-80.8"/>
<polygon fill="black" stroke="black" points="125.3,-84.23 134.18,-78.45 123.63,-77.43 125.3,-84.23"/>
</g>
<!-- 1731087432144 -->
<g id="node2" class="node">
<title>1731087432144</title>
<polygon fill="none" stroke="black" points="324.12,-90 225.62,-90 225.62,-54 324.12,-54 324.12,-90"/>
<text text-anchor="middle" x="274.88" y="-66.58" font-family="Times New Roman,serif" font-size="14.00">{data &#45;6.0000}</text>
</g>
<!-- 1731087273424+ -->
<g id="node7" class="node">
<title>1731087273424+</title>
<ellipse fill="none" stroke="black" cx="388.25" cy="-45" rx="27" ry="18"/>
<text text-anchor="middle" x="388.25" y="-39.58" font-family="Times New Roman,serif" font-size="14.00">+</text>
</g>
<!-- 1731087432144&#45;&gt;1731087273424+ -->
<g id="edge5" class="edge">
<title>1731087432144&#45;&gt;1731087273424+</title>
<path fill="none" stroke="black" d="M324.4,-60.24C333.43,-58.05 342.71,-55.8 351.28,-53.72"/>
<polygon fill="black" stroke="black" points="352.06,-57.13 360.96,-51.37 350.41,-50.33 352.06,-57.13"/>
</g>
<!-- 1731087432144*&#45;&gt;1731087432144 -->
<g id="edge1" class="edge">
<title>1731087432144*&#45;&gt;1731087432144</title>
<path fill="none" stroke="black" d="M188.89,-72C196.58,-72 205.31,-72 214.18,-72"/>
<polygon fill="black" stroke="black" points="213.9,-75.5 223.9,-72 213.9,-68.5 213.9,-75.5"/>
</g>
<!-- 1731087431952 -->
<g id="node4" class="node">
<title>1731087431952</title>
<polygon fill="none" stroke="black" points="96.25,-63 2.25,-63 2.25,-27 96.25,-27 96.25,-63"/>
<text text-anchor="middle" x="49.25" y="-39.58" font-family="Times New Roman,serif" font-size="14.00">{data 2.0000}</text>
</g>
<!-- 1731087431952&#45;&gt;1731087432144* -->
<g id="edge6" class="edge">
<title>1731087431952&#45;&gt;1731087432144*</title>
<path fill="none" stroke="black" d="M96.69,-56.37C106.02,-58.66 115.69,-61.03 124.59,-63.21"/>
<polygon fill="black" stroke="black" points="123.75,-66.6 134.29,-65.58 125.41,-59.8 123.75,-66.6"/>
</g>
<!-- 1731087432016 -->
<g id="node5" class="node">
<title>1731087432016</title>
<polygon fill="none" stroke="black" points="325.25,-36 224.5,-36 224.5,0 325.25,0 325.25,-36"/>
<text text-anchor="middle" x="274.88" y="-12.57" font-family="Times New Roman,serif" font-size="14.00">{data 10.0000}</text>
</g>
<!-- 1731087432016&#45;&gt;1731087273424+ -->
<g id="edge4" class="edge">
<title>1731087432016&#45;&gt;1731087273424+</title>
<path fill="none" stroke="black" d="M325.7,-30.08C334.36,-32.18 343.21,-34.32 351.4,-36.31"/>
<polygon fill="black" stroke="black" points="350.44,-39.68 360.99,-38.63 352.09,-32.88 350.44,-39.68"/>
</g>
<!-- 1731087273424 -->
<g id="node6" class="node">
<title>1731087273424</title>
<polygon fill="none" stroke="black" points="545.25,-63 451.25,-63 451.25,-27 545.25,-27 545.25,-63"/>
<text text-anchor="middle" x="498.25" y="-39.58" font-family="Times New Roman,serif" font-size="14.00">{data 4.0000}</text>
</g>
<!-- 1731087273424+&#45;&gt;1731087273424 -->
<g id="edge2" class="edge">
<title>1731087273424+&#45;&gt;1731087273424</title>
<path fill="none" stroke="black" d="M415.67,-45C422.97,-45 431.19,-45 439.52,-45"/>
<polygon fill="black" stroke="black" points="439.38,-48.5 449.38,-45 439.38,-41.5 439.38,-48.5"/>
</g>
</g>
</svg>
